<mxfile host="app.diagrams.net" modified="2021-09-29T01:46:38.283Z" agent="5.0 (Windows NT 10.0; WOW64) AppleWebKit/537.36 (KHTML, like Gecko) Chrome/86.0.4240.198 Safari/537.36" etag="vMeulFepSvy-SaFSM9bi" version="15.3.7" type="github">
  <diagram id="1cee9afd-dcdd-cf27-cb82-50d77dad4855" name="Page-1">
    <mxGraphModel dx="1888" dy="1656" grid="1" gridSize="10" guides="1" tooltips="1" connect="1" arrows="1" fold="1" page="1" pageScale="1" pageWidth="850" pageHeight="1100" math="0" shadow="0">
      <root>
        <mxCell id="0" />
        <mxCell id="1" parent="0" />
        <mxCell id="c1cb8d76720eaeb-1" value="list items" style="ellipse;whiteSpace=wrap;html=1;fillColor=#FF8000;strokeColor=#000066;fontColor=#000099;" parent="1" vertex="1">
          <mxGeometry x="180" y="-80" width="120" height="80" as="geometry" />
        </mxCell>
        <mxCell id="c1cb8d76720eaeb-3" value="Bookmark, deals" style="ellipse;whiteSpace=wrap;html=1;fillColor=#FF8000;strokeColor=#000066;fontColor=#000099;" parent="1" vertex="1">
          <mxGeometry x="180" y="60" width="120" height="80" as="geometry" />
        </mxCell>
        <mxCell id="c1cb8d76720eaeb-6" value="change items infor" style="ellipse;whiteSpace=wrap;html=1;fillColor=#FF8000;strokeColor=#000066;fontColor=#000099;" parent="1" vertex="1">
          <mxGeometry x="180" y="330" width="120" height="80" as="geometry" />
        </mxCell>
        <mxCell id="c1cb8d76720eaeb-10" style="html=1;exitX=1;exitY=0.3333333333333333;exitPerimeter=0;entryX=0;entryY=0.5;jettySize=auto;orthogonalLoop=1;fillColor=#f8cecc;strokeColor=#FF8000;curved=1;fontColor=#000099;" parent="1" source="c1cb8d76720eaeb-15" target="c1cb8d76720eaeb-1" edge="1">
          <mxGeometry relative="1" as="geometry" />
        </mxCell>
        <mxCell id="c1cb8d76720eaeb-13" style="edgeStyle=none;curved=1;html=1;exitX=1;exitY=0.3333333333333333;exitPerimeter=0;entryX=0;entryY=0.5;jettySize=auto;orthogonalLoop=1;strokeColor=#FF8000;fontColor=#000099;" parent="1" source="c1cb8d76720eaeb-15" target="c1cb8d76720eaeb-3" edge="1">
          <mxGeometry relative="1" as="geometry" />
        </mxCell>
        <mxCell id="c1cb8d76720eaeb-15" value="Customer" style="shape=umlActor;verticalLabelPosition=bottom;labelBackgroundColor=#ffffff;verticalAlign=top;html=1;strokeWidth=4;fillColor=#FF8000;strokeColor=#000066;fontColor=#000099;" parent="1" vertex="1">
          <mxGeometry x="30" y="40" width="30" height="60" as="geometry" />
        </mxCell>
        <mxCell id="c1cb8d76720eaeb-20" value="Employee" style="shape=umlActor;verticalLabelPosition=bottom;labelBackgroundColor=#ffffff;verticalAlign=top;html=1;strokeWidth=4;fillColor=#FF8000;strokeColor=#000066;fontColor=#000099;" parent="1" vertex="1">
          <mxGeometry x="-30" y="140" width="30" height="60" as="geometry" />
        </mxCell>
        <mxCell id="c1cb8d76720eaeb-26" value="sell goods" style="ellipse;whiteSpace=wrap;html=1;fillColor=#FF8000;strokeColor=#000066;fontColor=#000099;" parent="1" vertex="1">
          <mxGeometry x="180" y="190" width="120" height="80" as="geometry" />
        </mxCell>
        <mxCell id="BCp09lpTjPHIo2bbOKOB-2" value="add customer infor" style="ellipse;whiteSpace=wrap;html=1;fillColor=#FF8000;strokeColor=#000066;fontColor=#000099;" parent="1" vertex="1">
          <mxGeometry x="410" y="250" width="120" height="80" as="geometry" />
        </mxCell>
        <mxCell id="BCp09lpTjPHIo2bbOKOB-7" value="make invoice" style="ellipse;whiteSpace=wrap;html=1;fillColor=#FF8000;strokeColor=#000066;fontColor=#000099;" parent="1" vertex="1">
          <mxGeometry x="410" y="360" width="120" height="80" as="geometry" />
        </mxCell>
        <mxCell id="BCp09lpTjPHIo2bbOKOB-9" value="&amp;lt;&amp;lt; include &amp;gt;&amp;gt;" style="endArrow=open;endSize=12;dashed=1;html=1;fontColor=#000099;strokeColor=#FF8000;entryX=0;entryY=0.5;entryDx=0;entryDy=0;exitX=1;exitY=0.5;exitDx=0;exitDy=0;" parent="1" source="c1cb8d76720eaeb-26" target="BCp09lpTjPHIo2bbOKOB-2" edge="1">
          <mxGeometry width="160" relative="1" as="geometry">
            <mxPoint x="370.74999999999994" y="450.24" as="sourcePoint" />
            <mxPoint x="470" y="290" as="targetPoint" />
            <Array as="points" />
          </mxGeometry>
        </mxCell>
        <mxCell id="BCp09lpTjPHIo2bbOKOB-10" value="&amp;lt;&amp;lt; include &amp;gt;&amp;gt;" style="endArrow=open;endSize=12;dashed=1;html=1;exitX=1;exitY=0.5;entryX=0;entryY=0.5;fontColor=#000099;strokeColor=#FF8000;exitDx=0;exitDy=0;entryDx=0;entryDy=0;" parent="1" source="BCp09lpTjPHIo2bbOKOB-11" target="BCp09lpTjPHIo2bbOKOB-14" edge="1">
          <mxGeometry x="0.0144" width="160" relative="1" as="geometry">
            <mxPoint x="383.31999999999994" y="353.52" as="sourcePoint" />
            <mxPoint x="522.5735931288068" y="183.28427124746224" as="targetPoint" />
            <Array as="points" />
            <mxPoint as="offset" />
          </mxGeometry>
        </mxCell>
        <mxCell id="BCp09lpTjPHIo2bbOKOB-11" value="Change employee infor" style="ellipse;whiteSpace=wrap;html=1;fillColor=#FF8000;strokeColor=#000066;fontColor=#000099;" parent="1" vertex="1">
          <mxGeometry x="180" y="460" width="120" height="80" as="geometry" />
        </mxCell>
        <mxCell id="BCp09lpTjPHIo2bbOKOB-14" value="List all user" style="ellipse;whiteSpace=wrap;html=1;fillColor=#FF8000;strokeColor=#000066;fontColor=#000099;" parent="1" vertex="1">
          <mxGeometry x="420" y="460" width="120" height="80" as="geometry" />
        </mxCell>
        <mxCell id="BCp09lpTjPHIo2bbOKOB-16" value="" style="endArrow=block;endFill=0;endSize=12;html=1;entryX=0.25;entryY=0.1;entryDx=0;entryDy=0;entryPerimeter=0;exitX=0.5;exitY=0;exitDx=0;exitDy=0;exitPerimeter=0;" parent="1" source="c1cb8d76720eaeb-20" target="c1cb8d76720eaeb-15" edge="1">
          <mxGeometry width="160" relative="1" as="geometry">
            <mxPoint x="70" y="269.31" as="sourcePoint" />
            <mxPoint x="80" y="210" as="targetPoint" />
          </mxGeometry>
        </mxCell>
        <mxCell id="BCp09lpTjPHIo2bbOKOB-17" value="admin&lt;br&gt;" style="shape=umlActor;verticalLabelPosition=bottom;labelBackgroundColor=#ffffff;verticalAlign=top;html=1;strokeWidth=4;fillColor=#FF8000;strokeColor=#000066;fontColor=#000099;" parent="1" vertex="1">
          <mxGeometry x="-180" y="320" width="30" height="60" as="geometry" />
        </mxCell>
        <mxCell id="BCp09lpTjPHIo2bbOKOB-22" value="" style="endArrow=block;endFill=0;endSize=12;html=1;exitX=0.5;exitY=0;exitDx=0;exitDy=0;exitPerimeter=0;" parent="1" source="BCp09lpTjPHIo2bbOKOB-17" edge="1">
          <mxGeometry width="160" relative="1" as="geometry">
            <mxPoint x="20" y="500" as="sourcePoint" />
            <mxPoint x="-100" y="230" as="targetPoint" />
          </mxGeometry>
        </mxCell>
        <mxCell id="BCp09lpTjPHIo2bbOKOB-23" style="edgeStyle=none;curved=1;html=1;entryX=-0.008;entryY=0.622;jettySize=auto;orthogonalLoop=1;strokeColor=#FF8000;fontColor=#000099;entryDx=0;entryDy=0;entryPerimeter=0;exitX=1;exitY=0.3333333333333333;exitDx=0;exitDy=0;exitPerimeter=0;" parent="1" source="c1cb8d76720eaeb-20" target="c1cb8d76720eaeb-26" edge="1">
          <mxGeometry relative="1" as="geometry">
            <mxPoint x="-30" y="270" as="sourcePoint" />
            <mxPoint x="160.00000000000523" y="380" as="targetPoint" />
          </mxGeometry>
        </mxCell>
        <mxCell id="BCp09lpTjPHIo2bbOKOB-24" style="edgeStyle=none;curved=1;html=1;exitX=1;exitY=0.3333333333333333;exitPerimeter=0;jettySize=auto;orthogonalLoop=1;strokeColor=#FF8000;fontColor=#000099;entryX=0;entryY=0.5;entryDx=0;entryDy=0;exitDx=0;exitDy=0;startArrow=none;" parent="1" source="BCp09lpTjPHIo2bbOKOB-34" target="c1cb8d76720eaeb-6" edge="1">
          <mxGeometry relative="1" as="geometry">
            <mxPoint x="30" y="549.24" as="sourcePoint" />
            <mxPoint x="200" y="470" as="targetPoint" />
          </mxGeometry>
        </mxCell>
        <mxCell id="BCp09lpTjPHIo2bbOKOB-25" style="edgeStyle=none;curved=1;html=1;exitX=1;exitY=0.3333333333333333;exitPerimeter=0;entryX=0.003;entryY=0.372;jettySize=auto;orthogonalLoop=1;strokeColor=#FF8000;fontColor=#000099;entryDx=0;entryDy=0;entryPerimeter=0;exitDx=0;exitDy=0;" parent="1" source="BCp09lpTjPHIo2bbOKOB-17" target="BCp09lpTjPHIo2bbOKOB-11" edge="1">
          <mxGeometry relative="1" as="geometry">
            <mxPoint x="30" y="550.24" as="sourcePoint" />
            <mxPoint x="179.03999999999996" y="550" as="targetPoint" />
          </mxGeometry>
        </mxCell>
        <mxCell id="BCp09lpTjPHIo2bbOKOB-34" value="Employee" style="shape=umlActor;verticalLabelPosition=bottom;labelBackgroundColor=#ffffff;verticalAlign=top;html=1;strokeWidth=4;fillColor=#FF8000;strokeColor=#000066;fontColor=#000099;" parent="1" vertex="1">
          <mxGeometry x="-100" y="200" width="30" height="60" as="geometry" />
        </mxCell>
        <mxCell id="BCp09lpTjPHIo2bbOKOB-36" value="" style="endArrow=block;endFill=0;endSize=12;html=1;entryX=0;entryY=0.3333333333333333;entryDx=0;entryDy=0;entryPerimeter=0;exitX=0.5;exitY=0;exitDx=0;exitDy=0;exitPerimeter=0;" parent="1" source="BCp09lpTjPHIo2bbOKOB-34" target="c1cb8d76720eaeb-15" edge="1">
          <mxGeometry width="160" relative="1" as="geometry">
            <mxPoint x="-10" y="220" as="sourcePoint" />
            <mxPoint x="-130" y="130" as="targetPoint" />
          </mxGeometry>
        </mxCell>
        <mxCell id="BCp09lpTjPHIo2bbOKOB-37" value="" style="endArrow=block;endFill=0;endSize=12;html=1;entryX=0;entryY=0.3333333333333333;entryDx=0;entryDy=0;entryPerimeter=0;exitX=0.5;exitY=0;exitDx=0;exitDy=0;exitPerimeter=0;" parent="1" source="BCp09lpTjPHIo2bbOKOB-17" target="c1cb8d76720eaeb-20" edge="1">
          <mxGeometry width="160" relative="1" as="geometry">
            <mxPoint x="30" y="400" as="sourcePoint" />
            <mxPoint x="-130" y="140" as="targetPoint" />
            <Array as="points">
              <mxPoint x="-165" y="170" />
            </Array>
          </mxGeometry>
        </mxCell>
        <mxCell id="BCp09lpTjPHIo2bbOKOB-39" value="Statistic" style="ellipse;whiteSpace=wrap;html=1;fillColor=#FF8000;strokeColor=#000066;fontColor=#000099;" parent="1" vertex="1">
          <mxGeometry x="180" y="590" width="120" height="80" as="geometry" />
        </mxCell>
        <mxCell id="2T6XojJv8M6gnoJigWYu-1" value="&amp;lt;&amp;lt; include &amp;gt;&amp;gt;" style="endArrow=open;endSize=12;dashed=1;html=1;exitX=1;exitY=0.5;entryX=-0.013;entryY=0.423;fontColor=#000099;strokeColor=#FF8000;exitDx=0;exitDy=0;entryDx=0;entryDy=0;entryPerimeter=0;" edge="1" parent="1">
          <mxGeometry width="160" relative="1" as="geometry">
            <mxPoint x="310" y="240" as="sourcePoint" />
            <mxPoint x="418.44000000000005" y="403.84000000000015" as="targetPoint" />
            <Array as="points" />
          </mxGeometry>
        </mxCell>
        <mxCell id="2T6XojJv8M6gnoJigWYu-2" value="" style="edgeStyle=none;curved=1;html=1;jettySize=auto;orthogonalLoop=1;strokeColor=#FF8000;fontColor=#000099;exitX=1;exitY=0.3333333333333333;exitDx=0;exitDy=0;exitPerimeter=0;endArrow=none;entryX=0;entryY=0.5;entryDx=0;entryDy=0;" edge="1" parent="1" source="BCp09lpTjPHIo2bbOKOB-17" target="BCp09lpTjPHIo2bbOKOB-39">
          <mxGeometry relative="1" as="geometry">
            <mxPoint x="-150" y="340" as="sourcePoint" />
            <mxPoint x="190" y="630" as="targetPoint" />
          </mxGeometry>
        </mxCell>
      </root>
    </mxGraphModel>
  </diagram>
</mxfile>
